<svg width="41" height="41" viewBox="0 0 41 41" fill="none" xmlns="http://www.w3.org/2000/svg">
<path fill-rule="evenodd" clip-rule="evenodd" d="M0.5 20.5109C0.5 9.47027 9.47353 0.5 20.5136 0.5C31.5286 0.5 40.5 9.47027 40.5 20.5109C40.5 31.5286 31.5286 40.5 20.5136 40.5C9.47353 40.5 0.5 31.5286 0.5 20.5109ZM1.49989 20.5109C1.49989 30.9774 10.0291 39.4996 20.5136 39.4996C30.9769 39.4996 39.5001 30.9753 39.5001 20.5109C39.5001 10.0269 30.9801 1.50043 20.5136 1.50043C10.0258 1.50043 1.49989 10.0226 1.49989 20.5109ZM26.1885 7.93707C23.0233 6.52539 17.1254 6.38542 12.2942 8.53711C12.6804 8.26042 13.0836 8.01085 13.5018 7.78733C13.7568 7.65061 14.0178 7.52365 14.2831 7.40755C15.8044 6.699 18.2577 6.01215 21.3154 6.01215C21.4597 6.01215 21.6041 6.01324 21.7489 6.01649C24.3634 6.06315 27.4629 6.96593 29.3574 8.83984C29.6797 9.23264 29.8663 9.62435 29.9352 9.92708C31.4386 10.691 32.3164 11.4071 32.8009 12.2405C33.0109 12.6788 33.0798 13.14 32.9854 13.6727C33.4785 13.9494 33.906 14.3292 34.2386 14.7871C34.4431 15.1332 34.6054 15.5228 34.6531 15.8754C34.7209 16.3344 34.7665 16.8661 34.2809 17.4922C34.7898 17.7472 35.2043 18.4612 35.2542 18.765C35.5087 19.8945 34.7665 21.0056 33.8198 21.8639C33.1112 22.4824 31.8585 23.1769 30.5277 23.7313C29.7714 24.046 28.9896 24.3162 28.2686 24.5007C25.4902 25.2038 22.9278 25.6183 20.685 25.9818C19.7584 26.1326 18.886 26.2737 18.0754 26.4223C18.8143 26.5992 19.7079 26.8108 20.8852 26.9529C21.6957 27.0517 22.6408 27.1168 23.7633 27.1168C29.6564 27.1168 34.8598 24.3379 34.8598 24.3379C34.8598 24.3379 34.7453 24.6873 34.6276 25.0117C30.883 27.2773 24.9423 28.2246 22.3967 28.1085C19.83 27.9913 17.6577 27.5996 15.5298 26.9507C14.8799 27.1341 14.2397 27.35 13.612 27.5996C16.8509 29.0796 19.2999 29.4052 22.0522 29.6113C24.8707 29.8218 29.5441 29.148 33.4709 27.7179C33.383 27.8069 33.3158 27.9165 33.2501 28.0239C33.178 28.1411 33.1069 28.2572 33.0109 28.3418C30.9986 29.4052 26.7467 30.4696 24.5956 30.5618C22.4667 30.6552 19.8777 30.5618 17.611 30.1441C15.6687 29.7535 14.071 29.148 12.4076 28.4112C12.1097 28.6391 11.9708 28.9201 11.8987 29.2446C18.3998 32.6441 24.454 32.7114 31.3708 30.5618L30.7441 31.1641C23.1367 34.2641 17.1943 33.0597 12.5909 30.8385C12.432 30.7691 12.2464 30.6986 12.1097 30.6074C12.5497 31.3485 16.061 33.9158 19.9922 34.2402C21.4136 34.3618 23 34.2912 24.4703 34.084C25.8006 33.8963 27.0365 33.5957 27.9696 33.2235L26.814 33.8236C25.8651 34.2869 23.3456 35.3535 19.8289 35.1202C15.1365 34.7947 12.4998 32.7125 11.3198 31.6274C10.7653 31.1152 10.513 30.5391 10.3497 29.8218C9.28526 29.2663 8.61523 28.6858 8.06293 27.8079C7.7385 27.3229 7.80523 26.7457 7.87413 26.2563L8.01845 25.8451C7.50629 25.4707 6.97515 25.0779 6.76736 24.6873C6.30187 23.854 6.58398 23.1356 6.90625 22.5801C6.80371 22.4618 6.70443 22.3435 6.61437 22.2253C6.4592 22.0202 6.33116 21.8151 6.26118 21.61C6.12066 21.24 6.09896 20.8657 6.14073 20.4512C6.23513 19.7589 6.60514 19.1133 7.09071 18.5556C8.10634 17.375 9.72852 16.4505 12.4765 15.5488C14.5717 14.849 15.6969 14.607 17.0413 14.3184C17.4347 14.2337 17.8465 14.1458 18.3065 14.0406C20.6877 13.4894 23.5322 13.306 25.9118 12.4727C19.2755 11.3171 12.3864 12.3793 6.76736 16.2389L7.13628 15.1528C12.1764 11.8694 17.7499 9.92708 27.1829 11.5699C27.6918 11.2682 27.9919 10.9666 28.1329 10.3665C25.7729 9.5115 23.2078 9.21094 19.9021 9.25543C16.941 9.34983 11.5975 10.4555 8.73514 12.1504L9.6097 11.061C11.5975 9.87717 16.7999 8.32986 20.711 8.26042C23.4601 8.19206 24.8707 8.35265 28.1552 9.23264C27.8519 8.68034 27.1829 8.40039 26.1885 7.93707ZM31.2286 12.7504C31.1386 12.1026 30.3985 11.4776 29.7497 11.061C29.6895 11.2715 29.524 11.5102 29.3515 11.7218C29.2581 11.8368 29.1627 11.9431 29.0807 12.0332C29.7974 12.2198 30.5374 12.4933 31.2286 12.7504ZM28.064 12.9566C27.5985 13.3277 27.0696 13.65 26.2807 13.9538C27.5785 14.1806 28.5496 14.5517 29.6564 14.8544C29.6678 14.8598 29.6808 14.862 29.6933 14.8609C29.9341 14.8609 30.7262 14.1285 30.863 13.9277C30.4344 13.74 29.9531 13.5512 29.4372 13.3743C29.0004 13.2246 28.5393 13.0825 28.064 12.9566ZM33.0109 16.3572C33.3098 15.7789 33.1253 15.4089 32.503 14.8761C32.2475 15.1799 31.9697 15.4316 31.6697 15.6628C31.8878 15.7669 32.0972 15.857 32.2996 15.9525C32.5464 16.0686 32.783 16.1923 33.0109 16.3572ZM22.6077 15.1332C19.5554 15.5033 16.1776 16.1478 13.2886 17.005L13.1345 17.0517C11.7006 17.4878 6.27854 19.1328 7.92513 21.4006L7.94466 21.3789C8.102 21.201 9.24512 19.9021 12.8475 18.855C15.3817 18.1107 17.9799 17.6376 20.6188 17.1569C22.9892 16.725 25.3926 16.2867 27.8107 15.6411C26.3713 15.258 25.3904 15.0291 24.1632 15.028C23.6939 15.028 23.1888 15.0616 22.6077 15.1332ZM25.9134 17.9316C24.2722 18.3472 20.2933 18.9256 16.0176 19.85C14.6753 20.1506 10.9975 21.0056 9.19412 22.5334C9.48329 22.7721 9.71333 22.9045 9.95964 23.0336C10.1457 23.1313 10.3416 23.2279 10.5798 23.3668C11.3198 22.8796 12.3387 22.4173 13.8442 22.0224C16.2189 21.3919 18.0646 21.0881 20.1555 20.7441L20.7799 20.6411C23.1156 20.2873 27.5307 19.3628 29.9575 18.4839C30.5157 18.2951 31.0387 18.0608 31.4842 17.7884C31.6865 17.6647 31.8726 17.5334 32.0386 17.3956C31.8764 17.2133 30.3041 16.4505 30.2575 16.5211C29.2896 16.9822 27.9018 17.4434 25.9134 17.9316ZM27.5551 21.0773C22.6077 22.4173 19.0211 22.5996 14.951 23.6C14.4822 23.7183 14.0064 23.855 13.5415 24.0113C13.2029 24.1241 12.8698 24.2478 12.5497 24.3835C13.3098 24.7773 14.1431 25.1257 14.9743 25.4501C16.6388 24.964 17.4287 24.7556 19.8289 24.3628L21.1619 24.123C22.4331 23.8908 24.2082 23.5621 25.6096 23.2778C29.2896 22.4878 34.6764 20.7756 33.2431 18.5556C33.1714 18.6163 33.0998 18.6717 33.0282 18.727C32.9376 18.7986 32.8475 18.8702 32.7575 18.9494C31.6697 19.7773 29.9352 20.4512 27.5551 21.0773ZM8.77854 24.7773C8.93859 24.6168 9.14855 24.4768 9.31076 24.3379C8.93859 24.1458 8.68359 23.9831 8.39117 23.7964L8.22298 23.689C8.03744 24.11 8.4107 24.5668 8.77854 24.7773ZM13.0776 26.1196C12.4076 25.819 11.6919 25.5206 10.9975 25.1962C10.6742 25.4045 10.3752 25.6107 10.143 25.819C10.6975 26.1434 11.2308 26.4418 11.7864 26.7467C12.1949 26.495 12.6273 26.2845 13.0776 26.1196ZM10.3752 28.2724C10.4419 28.0391 10.5597 27.8557 10.7219 27.6246C10.5391 27.5269 10.3568 27.4303 10.1745 27.3294C9.96289 27.2112 9.75239 27.0885 9.54188 26.9507C9.51639 27.3924 9.79633 27.7852 10.3752 28.2724Z" fill="#476BF0"/>
</svg>
