<svg width="41" height="41" viewBox="0 0 41 41" fill="none" xmlns="http://www.w3.org/2000/svg">
<path d="M0.5 0.5H40.5V40.5H0.5V0.5Z" fill="#DD002E"/>
<path d="M7.5 10.2998V30.6998H11.2V13.4998H15.7V30.6998H19.4V10.2998H7.5ZM34.4 23.7998C34.3 21.4998 33.5 16.9998 27.7 16.9998L27.6 16.8998H25.9V13.5998H32.4V10.2998H22.4V30.6998H28C28.9 30.6998 29.8 30.4998 30.6 30.1998C31.4 29.8998 32.1 29.2998 32.7 28.6998C33.3 27.9998 33.8 27.2998 34.1 26.3998C34.4 25.5998 34.5 24.6998 34.4 23.7998ZM27.2 27.3998C26.8 27.3998 25.9 27.1998 25.9 27.1998V19.9998H26.6C28.5 19.9998 30.6 19.7998 30.6 23.5998C30.6 27.1998 28.3 27.3998 27.2 27.3998Z" fill="white"/>
</svg>
