<svg width="40" height="40" viewBox="0 0 40 40" fill="none" xmlns="http://www.w3.org/2000/svg">
<path d="M20.0001 0C16.0001 0 12.2001 1.2 8.90012 3.4C5.60012 5.6 3.00012 8.7 1.50012 12.4C0.000120997 16 -0.399879 20 0.400121 23.9C1.20012 27.8 3.10012 31.3 5.90012 34.1C8.70012 36.9 12.3001 38.8 16.1001 39.6C19.9001 40.4 24.0001 40 27.7001 38.5C31.4001 37 34.5001 34.4 36.7001 31.1C38.8001 27.8 40.0001 24 40.0001 20C40.0001 14.7 37.9001 9.6 34.1001 5.9C30.4001 2.1 25.3001 0 20.0001 0ZM20.0001 37.9C16.5001 37.9 13.0001 36.8 10.1001 34.9C7.20012 32.9 4.90012 30.1 3.50012 26.9C2.10012 23.7 1.80012 20 2.50012 16.6C3.20012 13 4.90012 9.9 7.40012 7.4C9.90012 4.9 13.1001 3.2 16.6001 2.5C20.1001 1.8 23.7001 2.2 26.9001 3.5C30.1001 4.8 33.0001 7.2 34.9001 10.1C36.9001 13 37.9001 16.5 37.9001 20.1C37.9001 24.8 36.0001 29.4 32.6001 32.7C29.3001 36.1 24.7001 37.9 20.0001 37.9V37.9Z" fill="#414042"/>
<path d="M24.3999 27.1C26.0999 28.9 25.7999 32.2 25.2999 33.7C25.2999 33.8 25.2999 33.8 25.1999 33.9C25.1999 34 25.0999 34 24.9999 34C24.0999 34.3 22.8999 34.6 22.3999 34.7C24.9999 32.4 25.3999 29.1 24.3999 27.1V27.1ZM33.7999 25C31.6999 23.2 29.0999 21.9 26.3999 21.3C29.1999 22.7 31.3999 24.9 32.7999 27.7C33.2999 26.9 33.6999 26.1 33.9999 25.3V25.1C33.8999 25.1 33.8999 25 33.7999 25V25ZM34.8999 20.1C34.8999 20 34.8999 19.9 34.7999 19.9C33.9999 19.6 33.0999 19.3 32.2999 19C32.4999 18.9 32.6999 18.8 32.7999 18.6C32.8999 18.4 32.9999 18.3 33.0999 18C32.1999 18.4 31.1999 18.6 30.2999 18.6C31.9999 19.3 33.5999 20.2 34.9999 21.3C34.8999 20.9 34.8999 20.5 34.8999 20.1V20.1Z" fill="#414042"/>
<path d="M26.8 25.4C27.4 25.6 28 25.6 28.6 25.4C26.2 24.8 24.8 21.3 19.2 20.8C19 20.8 18.4 20.9 18.7 20.3C19.5 19.5 20.3 18.8 21.2 18.2C20.8 18.2 18.9 18.4 18.4 18.4C17.9 18.4 17.7 18.3 17.7 17.9C17.7 17.9 16.6 18.9 17.1 19.5C17.2 19.6 17.4 19.6 17.7 19.5C18 19.4 18.4 19.3 18.7 19.2H18.8V19.3L18.2 20.2C18.1 20.5 18 20.7 18.6 20.8C20.2 21.3 21.8 22 23.3 22.9C24.9 23.9 26.2 25.2 27.1 26.9C28 28.5 28.4 30.4 28.4 32.2C29.1 31.7 29.9 31.1 30.5 30.5C30.6 30.4 30.6 30.2 30.6 30.2C29.8 28.3 28.5 26.6 26.8 25.4V25.4Z" fill="#414042"/>
<path d="M32.9999 13.3C32.6999 13.1 31.0999 12.1 30.6999 11.9C30.3999 11.7 30.0999 11.5 29.8999 11.2C29.6999 10.9 29.5999 10.5 29.5999 10.2C29.6999 9.19998 28.9999 7.79998 27.0999 6.09998V6.59998C26.4999 6.09998 25.7999 5.69998 24.9999 5.59998C24.9999 5.59998 25.1999 4.99998 25.1999 4.59998C25.1999 4.19998 24.9999 3.79998 24.4999 4.09998C22.0999 5.09998 18.1999 5.09998 14.0999 9.09998C14.5999 7.79998 15.4999 6.59998 16.5999 5.69998C15.5999 5.89998 14.5999 6.29998 13.5999 6.69998C13.2999 6.79998 13.0999 7.09998 12.8999 7.29998C11.3999 9.59998 10.3999 12.2 9.9999 14.9C9.5999 13 9.6999 11 9.9999 8.99998C9.1999 9.69998 8.3999 10.6 7.7999 11.5C7.5999 11.8 7.3999 12.1 7.3999 12.5C7.3999 15.4 7.9999 18.2 9.0999 20.8C7.4999 19.5 6.2999 16.8 5.6999 15.3C5.2999 16.5 4.9999 17.8 4.8999 19.1C4.8999 19.6 5.0999 20.2 5.3999 20.6C6.9999 23.4 9.3999 25.7 12.1999 27.3C10.4999 27.1 7.0999 25.2 5.3999 23.8C5.6999 25.1 6.1999 26.3 6.7999 27.4C7.0999 27.9 7.4999 28.3 8.0999 28.5C10.8999 30 13.9999 30.8 17.1999 30.6C14.7999 31.5 12.1999 31.6 9.6999 31C10.0999 31.4 10.5999 31.8 11.0999 32.2C12.1999 33 13.4999 33.6 14.7999 33.9C17.9999 34.5 21.9999 32.2 20.9999 28C20.7999 28.4 20.5999 28.7 20.2999 29C19.9999 29.3 19.5999 29.5 19.1999 29.6C20.7999 28 20.5999 25.5 17.8999 25.2C16.6999 25.1 15.5999 25.1 14.3999 25.2C14.0999 25.2 13.6999 25.2 13.3999 25.1C13.0999 25 12.7999 24.8 12.5999 24.6L14.1999 24.4C15.0999 24 15.9999 23.8 16.9999 23.8C16.8999 23.6 16.5999 23.2 15.2999 23.6C15.0999 23.7 14.7999 23.7 14.5999 23.6C14.3999 23.5 14.1999 23.4 13.9999 23.2C15.2999 23.5 15.6999 22.1 16.8999 22.9C17.0999 23.1 17.4999 23.1 17.3999 22.7C17.2999 22.5 17.0999 22.3 16.9999 22.2C16.7999 22.1 16.5999 22 16.2999 22.1C15.0999 21.9 13.8999 22 12.7999 22.4C12.2999 22.6 11.8999 23 11.4999 23.3C11.4999 22.7 11.5999 21 12.3999 20.2C13.5999 19.5 14.8999 19 16.2999 18.9C16.1999 18.8 16.1999 18.6 16.1999 18.5C16.1999 18.4 16.1999 18.2 16.2999 18.1C16.6999 17.6 17.8999 16.8 24.8999 16.8L24.2999 17.4C25.7999 17.5 27.2999 17.8 28.6999 18.3C28.8999 18.4 29.2999 18.5 29.6999 17.7C29.8999 17.5 29.6999 17.5 29.2999 17.2C29.3999 17.1 29.3999 16.9 29.3999 16.8C29.3999 16.6 29.1999 16.6 29.1999 16.7C28.9999 16.9 28.4999 16.9 28.3999 16.6C28.2999 16.3 28.0999 16.1 27.8999 16C27.6999 15.8 27.3999 15.7 27.0999 15.7C27.2999 15.5 27.5999 15.3 27.8999 15.3C28.1999 15.2 28.4999 15.2 28.7999 15.3C28.7999 15.3 28.8999 15.6 29.0999 15.5C29.2999 15.4 29.4999 15.2 29.6999 15.4C29.7999 15.5 29.7999 15.7 29.7999 15.8C29.6999 16 29.7999 16 29.9999 15.9L30.3999 15.5C30.6999 15.6 30.9999 15.6 31.2999 15.5C31.5999 15.4 31.7999 15.2 31.9999 15C32.1999 14.8 32.2999 14.5 32.3999 14.2C32.8999 13.9 33.1999 13.4 32.9999 13.3ZM19.5999 13L20.4999 12.7C20.7999 12.6 21.0999 12.6 20.7999 12.9C20.0999 13.9 20.0999 15.9 21.0999 16.3C20.4999 16.3 19.7999 16.4 19.1999 16.5C19.0999 15.6 19.1999 14.6 19.3999 13.7C18.9999 13.9 18.4999 14.1 18.2999 14.2C18.1999 12.3 19.8999 9.09998 21.9999 8.29998C20.6999 9.49998 19.7999 11.2 19.5999 13V13ZM24.0999 5.19998C23.8999 5.59998 23.2999 6.19998 23.4999 6.69998C23.1999 6.79998 22.7999 6.89998 22.4999 7.09998C22.2999 7.29998 22.1999 7.09998 22.2999 6.89998C22.5999 6.19998 23.1999 5.59998 23.8999 5.09998C24.1999 4.89998 24.2999 5.09998 24.0999 5.19998ZM28.5999 10.7C28.4999 11 28.4999 11.1 28.1999 11C28.0999 10.9 27.8999 10.9 27.6999 10.8C27.4999 10.7 27.4999 10.7 27.4999 10.9C27.6999 11.2 27.7999 11.6 27.6999 12C27.2999 11.3 26.8999 10.6 26.2999 10.1C26.7999 9.99998 27.3999 10.1 27.8999 10.3C28.0999 10.4 28.3999 10.4 28.4999 9.39998C28.7999 9.79998 28.7999 10.3 28.5999 10.7V10.7Z" fill="#414042"/>
</svg>
