<svg width="40" height="40" viewBox="0 0 40 40" fill="none" xmlns="http://www.w3.org/2000/svg">
<g clip-path="url(#clip0_862_21311)">
<path d="M35.3514 7.77051C36.2889 8.99885 37.0826 10.3333 37.7163 11.7472L19.7395 25.1772L12.2266 20.4042V14.6622L19.7395 19.4351L35.3514 7.77051Z" fill="#21A038"/>
<path d="M4.55927 19.9991C4.55927 19.7414 4.56547 19.4855 4.57787 19.231L0.0247968 19.0049C0.00929965 19.3347 5.50217e-06 19.6677 5.50217e-06 20.0037C-0.0019317 22.6295 0.507688 25.2298 1.49964 27.6554C2.49159 30.0811 3.94634 32.2844 5.78045 34.1389L9.01005 30.8674C7.59822 29.4424 6.47822 27.7486 5.7144 25.8834C4.95058 24.0182 4.55802 22.0185 4.55927 19.9991Z" fill="url(#paint0_linear_862_21311)"/>
<path d="M19.7355 4.62042C19.9896 4.62042 20.2422 4.62985 20.4932 4.64241L20.7211 0.0265021C20.3947 0.0107964 20.0661 0.00294452 19.7355 0.00294452C17.1434 -0.000259062 14.5763 0.515474 12.1814 1.52053C9.78659 2.52559 7.61123 4.00017 5.78027 5.85962L9.00988 9.13268C10.4161 7.70139 12.0876 6.5659 13.9283 5.79152C15.769 5.01715 17.7425 4.61915 19.7355 4.62042Z" fill="url(#paint1_linear_862_21311)"/>
<path d="M19.7357 35.3798C19.4815 35.3798 19.2289 35.3798 18.9764 35.3594L18.7485 39.9737C19.076 39.9904 19.4051 39.9989 19.7357 39.9989C22.3267 40.0016 24.8926 39.4855 27.2861 38.4802C29.6797 37.4748 31.8536 36 33.6832 34.1406L30.4598 30.8691C29.0533 32.2997 27.382 33.4345 25.5417 34.2086C23.7014 34.9827 21.7282 35.3808 19.7357 35.3798Z" fill="url(#paint2_linear_862_21311)"/>
<path d="M28.2902 7.30319L32.1273 4.43689C28.6202 1.55876 24.2423 -0.00798939 19.7295 3.06379e-05V4.61908C22.7854 4.61524 25.7703 5.55117 28.2902 7.30319Z" fill="url(#paint3_linear_862_21311)"/>
<path d="M39.4697 20.0001C39.4722 18.7985 39.3685 17.5989 39.1597 16.416L34.912 19.5886C34.912 19.7253 34.912 19.8619 34.912 20.0001C34.9131 22.1491 34.4686 24.2743 33.6074 26.238C32.7462 28.2017 31.4873 29.9601 29.9126 31.3992L32.9764 34.831C35.0237 32.9579 36.6597 30.6698 37.7782 28.1149C38.8969 25.5599 39.4732 22.7952 39.4697 20.0001Z" fill="#21A038"/>
<path d="M19.7356 35.3802C17.6149 35.3809 15.5178 34.9303 13.5799 34.0575C11.6421 33.1847 9.90668 31.9091 8.48613 30.3135L5.10156 33.4169C6.94953 35.4921 9.20724 37.1503 11.7283 38.2843C14.2493 39.4181 16.9773 40.0024 19.7356 39.9991V35.3802Z" fill="url(#paint4_linear_862_21311)"/>
<path d="M9.55867 8.60016L6.49642 5.16846C4.44858 7.04117 2.81201 9.3292 1.69285 11.8842C0.573697 14.4391 -0.0030512 17.2039 1.21392e-05 19.9993H4.55928C4.55834 17.8505 5.0029 15.7252 5.86412 13.7615C6.72535 11.7978 7.98405 10.0394 9.55867 8.60016Z" fill="url(#paint5_linear_862_21311)"/>
</g>
<defs>
<linearGradient id="paint0_linear_862_21311" x1="6.70253" y1="33.5625" x2="1.60155" y2="19.0125" gradientUnits="userSpaceOnUse">
<stop offset="0.14" stop-color="#F1E813"/>
<stop offset="0.3" stop-color="#E6E418"/>
<stop offset="0.58" stop-color="#C9DA26"/>
<stop offset="0.89" stop-color="#A2CC39"/>
</linearGradient>
<linearGradient id="paint1_linear_862_21311" x1="7.08203" y1="6.67631" x2="19.9552" y2="1.83568" gradientUnits="userSpaceOnUse">
<stop offset="0.06" stop-color="#0FA7DF"/>
<stop offset="0.54" stop-color="#0098F8"/>
<stop offset="0.92" stop-color="#0290EA"/>
</linearGradient>
<linearGradient id="paint2_linear_862_21311" x1="18.4479" y1="37.2111" x2="32.9749" y2="33.9728" gradientUnits="userSpaceOnUse">
<stop offset="0.12" stop-color="#A2CC39"/>
<stop offset="0.28" stop-color="#86C239"/>
<stop offset="0.87" stop-color="#219F38"/>
</linearGradient>
<linearGradient id="paint3_linear_862_21311" x1="18.7811" y1="1.54704" x2="31.2135" y2="5.3327" gradientUnits="userSpaceOnUse">
<stop offset="0.06" stop-color="#0290EA"/>
<stop offset="0.79" stop-color="#0C89CA"/>
</linearGradient>
<linearGradient id="paint4_linear_862_21311" x1="6.24525" y1="32.8546" x2="19.7902" y2="37.8497" gradientUnits="userSpaceOnUse">
<stop offset="0.13" stop-color="#F1E813"/>
<stop offset="0.3" stop-color="#EAE616"/>
<stop offset="0.53" stop-color="#D8DF1F"/>
<stop offset="0.8" stop-color="#BAD52D"/>
<stop offset="0.98" stop-color="#A2CC39"/>
</linearGradient>
<linearGradient id="paint5_linear_862_21311" x1="1.6985" y1="20.5584" x2="7.24536" y2="6.32068" gradientUnits="userSpaceOnUse">
<stop offset="0.07" stop-color="#A2CC39"/>
<stop offset="0.26" stop-color="#81C45E"/>
<stop offset="0.92" stop-color="#0FA7DF"/>
</linearGradient>
<clipPath id="clip0_862_21311">
<rect width="40" height="40" fill="white"/>
</clipPath>
</defs>
</svg>
