<svg width="40" height="40" viewBox="0 0 40 40" fill="none" xmlns="http://www.w3.org/2000/svg">
<path d="M10 39.9998L30.034 39.9726L30.0204 20.1426C25.845 28.0583 18.0245 33.1994 10 35.1715C10.0272 36.6676 10 39.9998 10 39.9998Z" fill="#008FB4"/>
<path d="M16.4059 30.017C23.968 26.1952 27.613 19.218 27.613 19.218C27.613 19.218 27.5858 16.9194 27.5858 16.8786C23.424 15.4097 19.6429 13.2608 16.4195 10.051C16.4331 15.4914 16.4059 30.017 16.4059 30.017ZM17.4804 0C17.4804 0 17.4804 6.06596 17.4668 7.57566C19.4662 9.42537 20.459 10.2822 22.5263 11.6015L22.5399 3.46821C20.187 2.17613 19.2757 1.49609 17.4804 0Z" fill="#008FB4"/>
</svg>
